# xmcd
#
# Track frame offsets: 
#        150
#        23620
#        45807
#        62875
#        79633
#        99547
#
# Disc length: 1506 seconds
#
# Revision: 0
# Processed by: cddbd v1.5.2PL0 Copyright (c) Steve Scherf et al.
# Submitted via: ExactAudioCopy v1.0b3
#
DISCID=3905e006
DTITLE=Emma Pollock and RM Hubbert - Split EP
DYEAR=2012
DGENRE=Folk
TTITLE0=RM Hubbert - Half Light
TTITLE1=Emma Pollock - The Night Is Heavy
TTITLE2=RM Hubbert - SG-666
TTITLE3=Emma Pollock - Dark Skies
TTITLE4=RM Hubbert - Elliot
TTITLE5=Mo Ve'la Bella Mia Da La Muntagna
EXTD=
EXTT0=
EXTT1=
EXTT2=
EXTT3=
EXTT4=
EXTT5=
PLAYORDER=
